<?xml version="1.0" encoding="UTF-8" standalone="no"?>
<svg
   xmlns:dc="http://purl.org/dc/elements/1.1/"
   xmlns:cc="http://creativecommons.org/ns#"
   xmlns:rdf="http://www.w3.org/1999/02/22-rdf-syntax-ns#"
   xmlns:svg="http://www.w3.org/2000/svg"
   xmlns="http://www.w3.org/2000/svg"
   xmlns:xlink="http://www.w3.org/1999/xlink"
   xmlns:sodipodi="http://sodipodi.sourceforge.net/DTD/sodipodi-0.dtd"
   xmlns:inkscape="http://www.inkscape.org/namespaces/inkscape"
   viewBox="0 0 1024 1024"
   id="svg2"
   version="1.1"
   inkscape:version="0.48.4 r9939"
   width="100%"
   height="100%"
   sodipodi:docname="dyn_scaling.svg">
  <metadata
     id="metadata260">
    <rdf:RDF>
      <cc:Work
         rdf:about="">
        <dc:format>image/svg+xml</dc:format>
        <dc:type
           rdf:resource="http://purl.org/dc/dcmitype/StillImage" />
      </cc:Work>
    </rdf:RDF>
  </metadata>
  <defs
     id="defs258">
    <defs
       id="defs11">
      <circle
         stroke-width="0.5"
         r="0.5"
         id="gpDot" />
      <path
         d="M-1,0 h2 M0,-1 v2"
         stroke="currentColor"
         stroke-width="0.121"
         id="gpPt0" />
      <path
         d="M-1,-1 L1,1 M1,-1 L-1,1"
         stroke="currentColor"
         stroke-width="0.121"
         id="gpPt1" />
      <path
         d="M-1,0 L1,0 M0,-1 L0,1 M-1,-1 L1,1 M-1,1 L1,-1"
         stroke="currentColor"
         stroke-width="0.121"
         id="gpPt2" />
      <rect
         height="2"
         width="2"
         y="-1"
         x="-1"
         stroke="currentColor"
         stroke-width="0.121"
         id="gpPt3" />
      <rect
         height="2"
         width="2"
         y="-1"
         x="-1"
         fill="currentColor"
         stroke="currentColor"
         stroke-width="0.121"
         id="gpPt4" />
      <circle
         r="1"
         cy="0"
         cx="0"
         stroke="currentColor"
         stroke-width="0.121"
         id="gpPt5" />
      <use
         stroke="none"
         fill="currentColor"
         id="gpPt6"
         xlink:href="#gpPt5" />
      <path
         d="M0,-1.33 L-1.33,0.67 L1.33,0.67 z"
         stroke="currentColor"
         stroke-width="0.121"
         id="gpPt7" />
      <use
         stroke="none"
         fill="currentColor"
         id="gpPt8"
         xlink:href="#gpPt7" />
      <use
         transform="rotate(180)"
         stroke="currentColor"
         id="gpPt9"
         xlink:href="#gpPt7" />
      <use
         stroke="none"
         fill="currentColor"
         id="gpPt10"
         xlink:href="#gpPt9" />
      <use
         transform="rotate(45)"
         stroke="currentColor"
         id="gpPt11"
         xlink:href="#gpPt3" />
      <use
         stroke="none"
         fill="currentColor"
         id="gpPt12"
         xlink:href="#gpPt11" />
    </defs>
  </defs>
  <sodipodi:namedview
     pagecolor="#ffffff"
     bordercolor="#666666"
     borderopacity="1"
     objecttolerance="10"
     gridtolerance="10"
     guidetolerance="10"
     inkscape:pageopacity="0"
     inkscape:pageshadow="2"
     inkscape:window-width="1087"
     inkscape:window-height="709"
     id="namedview256"
     showgrid="false"
     inkscape:zoom="0.4609375"
     inkscape:cx="512"
     inkscape:cy="512"
     inkscape:window-x="300"
     inkscape:window-y="160"
     inkscape:window-maximized="0"
     inkscape:current-layer="svg2" />
  <title
     id="title4">Gnuplot</title>
  <desc
     id="desc6">Produced by GNUPLOT 4.6 patchlevel 4 </desc>
  <rect
     style="fill:none"
     id="rect9"
     height="1024"
     width="1024"
     y="0"
     x="0" />
  <path
     d="m 117.7,918.4 16.5,0 h 0.01"
     id="path31"
     inkscape:connector-curvature="0"
     style="color:#000000;fill:none;stroke:#000000;stroke-width:3;stroke-linecap:butt;stroke-linejoin:miter" />
  <text
     style="font-size:27.5px;text-anchor:end;color:#000000;fill:#000000;stroke:none;font-family:Arial"
     id="text35"
     x="102.3"
     y="926.59998">
    <tspan
       id="tspan37">0</tspan>
  </text>
  <path
     d="m 117.7,791.6 16.5,0 h 0.01"
     id="path39"
     inkscape:connector-curvature="0"
     style="color:#000000;fill:none;stroke:#000000;stroke-width:3;stroke-linecap:butt;stroke-linejoin:miter" />
  <text
     style="font-size:27.5px;text-anchor:end;color:#000000;fill:#000000;stroke:none;font-family:Arial"
     id="text43"
     x="102.3"
     y="799.79999">
    <tspan
       id="tspan45">2</tspan>
  </text>
  <path
     d="m 117.7,664.8 16.5,0 h 0.01"
     id="path47"
     inkscape:connector-curvature="0"
     style="color:#000000;fill:none;stroke:#000000;stroke-width:3;stroke-linecap:butt;stroke-linejoin:miter" />
  <text
     style="font-size:27.5px;text-anchor:end;color:#000000;fill:#000000;stroke:none;font-family:Arial"
     id="text51"
     x="102.3"
     y="673">
    <tspan
       id="tspan53">4</tspan>
  </text>
  <path
     d="m 117.7,538 16.5,0 h 0.01"
     id="path55"
     inkscape:connector-curvature="0"
     style="color:#000000;fill:none;stroke:#000000;stroke-width:3;stroke-linecap:butt;stroke-linejoin:miter" />
  <text
     style="font-size:27.5px;text-anchor:end;color:#000000;fill:#000000;stroke:none;font-family:Arial"
     id="text59"
     x="102.3"
     y="546.20001">
    <tspan
       id="tspan61">6</tspan>
  </text>
  <path
     d="m 117.7,411.3 16.5,0 h 0.01"
     id="path63"
     inkscape:connector-curvature="0"
     style="color:#000000;fill:none;stroke:#000000;stroke-width:3;stroke-linecap:butt;stroke-linejoin:miter" />
  <text
     style="font-size:27.5px;text-anchor:end;color:#000000;fill:#000000;stroke:none;font-family:Arial"
     id="text67"
     x="102.3"
     y="419.5">
    <tspan
       id="tspan69">8</tspan>
  </text>
  <path
     d="m 117.7,284.5 16.5,0 h 0.01"
     id="path71"
     inkscape:connector-curvature="0"
     style="color:#000000;fill:none;stroke:#000000;stroke-width:3;stroke-linecap:butt;stroke-linejoin:miter" />
  <text
     style="font-size:27.5px;text-anchor:end;color:#000000;fill:#000000;stroke:none;font-family:Arial"
     id="text75"
     x="102.3"
     y="292.70001">
    <tspan
       id="tspan77">10</tspan>
  </text>
  <path
     d="m 117.7,157.7 16.5,0 h 0.01"
     id="path79"
     inkscape:connector-curvature="0"
     style="color:#000000;fill:none;stroke:#000000;stroke-width:3;stroke-linecap:butt;stroke-linejoin:miter" />
  <text
     style="font-size:27.5px;text-anchor:end;color:#000000;fill:#000000;stroke:none;font-family:Arial"
     id="text83"
     x="102.3"
     y="165.89999">
    <tspan
       id="tspan85">12</tspan>
  </text>
  <path
     d="m 117.7,30.9 16.5,0 h 0.01"
     id="path87"
     inkscape:connector-curvature="0"
     style="color:#000000;fill:none;stroke:#000000;stroke-width:3;stroke-linecap:butt;stroke-linejoin:miter" />
  <text
     style="font-size:27.5px;text-anchor:end;color:#000000;fill:#000000;stroke:none;font-family:Arial"
     id="text91"
     x="102.3"
     y="39.099998">
    <tspan
       id="tspan93">14</tspan>
  </text>
  <path
     d="m 183.9,918.4 0,-16.5 h 0.01"
     id="path95"
     inkscape:connector-curvature="0"
     style="color:#000000;fill:none;stroke:#000000;stroke-width:3;stroke-linecap:butt;stroke-linejoin:miter" />
  <text
     style="font-size:27.5px;text-anchor:middle;color:#000000;fill:#000000;stroke:none;font-family:Arial"
     id="text99"
     x="183.89999"
     y="959.59998">
    <tspan
       id="tspan101">2</tspan>
  </text>
  <path
     d="m 316.2,918.4 0,-16.5 h 0.01"
     id="path103"
     inkscape:connector-curvature="0"
     style="color:#000000;fill:none;stroke:#000000;stroke-width:3;stroke-linecap:butt;stroke-linejoin:miter" />
  <text
     style="font-size:27.5px;text-anchor:middle;color:#000000;fill:#000000;stroke:none;font-family:Arial"
     id="text107"
     x="316.20001"
     y="959.59998">
    <tspan
       id="tspan109">4</tspan>
  </text>
  <path
     d="m 448.5,918.4 0,-16.5 h 0.01"
     id="path111"
     inkscape:connector-curvature="0"
     style="color:#000000;fill:none;stroke:#000000;stroke-width:3;stroke-linecap:butt;stroke-linejoin:miter" />
  <text
     style="font-size:27.5px;text-anchor:middle;color:#000000;fill:#000000;stroke:none;font-family:Arial"
     id="text115"
     x="448.5"
     y="959.59998">
    <tspan
       id="tspan117">6</tspan>
  </text>
  <path
     d="m 580.8,918.4 0,-16.5 h 0.01"
     id="path119"
     inkscape:connector-curvature="0"
     style="color:#000000;fill:none;stroke:#000000;stroke-width:3;stroke-linecap:butt;stroke-linejoin:miter" />
  <text
     style="font-size:27.5px;text-anchor:middle;color:#000000;fill:#000000;stroke:none;font-family:Arial"
     id="text123"
     x="580.79999"
     y="959.59998">
    <tspan
       id="tspan125">8</tspan>
  </text>
  <path
     d="m 713.1,918.4 0,-16.5 h 0.01"
     id="path127"
     inkscape:connector-curvature="0"
     style="color:#000000;fill:none;stroke:#000000;stroke-width:3;stroke-linecap:butt;stroke-linejoin:miter" />
  <text
     style="font-size:27.5px;text-anchor:middle;color:#000000;fill:#000000;stroke:none;font-family:Arial"
     id="text131"
     x="713.09998"
     y="959.59998">
    <tspan
       id="tspan133">10</tspan>
  </text>
  <path
     d="m 845.4,918.4 0,-16.5 h 0.01"
     id="path135"
     inkscape:connector-curvature="0"
     style="color:#000000;fill:none;stroke:#000000;stroke-width:3;stroke-linecap:butt;stroke-linejoin:miter" />
  <text
     style="font-size:27.5px;text-anchor:middle;color:#000000;fill:#000000;stroke:none;font-family:Arial"
     id="text139"
     x="845.40002"
     y="959.59998">
    <tspan
       id="tspan141">12</tspan>
  </text>
  <path
     d="m 977.7,918.4 0,-16.5 h 0.01"
     id="path143"
     inkscape:connector-curvature="0"
     style="color:#000000;fill:none;stroke:#000000;stroke-width:3;stroke-linecap:butt;stroke-linejoin:miter" />
  <text
     style="font-size:27.5px;text-anchor:middle;color:#000000;fill:#000000;stroke:none;font-family:Arial"
     id="text147"
     x="977.70001"
     y="959.59998">
    <tspan
       id="tspan149">14</tspan>
  </text>
  <path
     d="m 117.7,30.9 0,887.5 860,0 m 0,-887.5 m -860,0 h 0.01"
     id="path151"
     inkscape:connector-curvature="0"
     style="color:#000000;fill:none;stroke:#000000;stroke-width:3;stroke-linecap:butt;stroke-linejoin:miter" />
  <text
     style="font-size:27.5px;text-anchor:middle;color:#000000;fill:#000000;stroke:none;font-family:Arial"
     id="text155"
     transform="matrix(0,-1,1,0,0,0)"
     x="-474.70001"
     y="66.400002">
    <tspan
       id="tspan157">relative speedup</tspan>
  </text>
  <text
     style="font-size:27.5px;text-anchor:middle;color:#000000;fill:#000000;stroke:none;font-family:Arial"
     id="text161"
     x="547.70001"
     y="989.09998">
    <tspan
       id="tspan163">number of processes</tspan>
  </text>
  <text
     style="font-size:27.5px;text-anchor:start;color:#ff0000;fill:#000000;stroke:none;font-family:Arial"
     id="text172"
     x="133.10001"
     y="72.099998">
    <tspan
       id="tspan174">block=100</tspan>
  </text>
  <path
     style="color:#ff0000;fill:none;stroke:currentColor;stroke-width:3;stroke-linecap:butt;stroke-linejoin:miter"
     inkscape:connector-curvature="0"
     id="path176"
     d="m 302.5,63.9 78.1,0 M 183.9,791.6 250,681.5 382.3,493.1 514.6,346.8 646.9,226 845.4,81.5 l 66.1,9 h 0.01" />
  <use
     style="color:#ff0000;fill:none;stroke:currentColor;stroke-width:3;stroke-linecap:butt;stroke-linejoin:miter"
     height="1024"
     width="1024"
     y="0"
     x="0"
     id="use178"
     transform="matrix(8.25,0,0,8.25,183.9,791.6)"
     xlink:href="#gpPt0" />
  <use
     style="color:#ff0000;fill:none;stroke:currentColor;stroke-width:3;stroke-linecap:butt;stroke-linejoin:miter"
     height="1024"
     width="1024"
     y="0"
     x="0"
     id="use180"
     transform="matrix(8.25,0,0,8.25,250,681.5)"
     xlink:href="#gpPt0" />
  <use
     style="color:#ff0000;fill:none;stroke:currentColor;stroke-width:3;stroke-linecap:butt;stroke-linejoin:miter"
     height="1024"
     width="1024"
     y="0"
     x="0"
     id="use182"
     transform="matrix(8.25,0,0,8.25,382.3,493.1)"
     xlink:href="#gpPt0" />
  <use
     style="color:#ff0000;fill:none;stroke:currentColor;stroke-width:3;stroke-linecap:butt;stroke-linejoin:miter"
     height="1024"
     width="1024"
     y="0"
     x="0"
     id="use184"
     transform="matrix(8.25,0,0,8.25,514.6,346.8)"
     xlink:href="#gpPt0" />
  <use
     style="color:#ff0000;fill:none;stroke:currentColor;stroke-width:3;stroke-linecap:butt;stroke-linejoin:miter"
     height="1024"
     width="1024"
     y="0"
     x="0"
     id="use186"
     transform="matrix(8.25,0,0,8.25,646.9,226)"
     xlink:href="#gpPt0" />
  <use
     style="color:#ff0000;fill:none;stroke:currentColor;stroke-width:3;stroke-linecap:butt;stroke-linejoin:miter"
     height="1024"
     width="1024"
     y="0"
     x="0"
     id="use188"
     transform="matrix(8.25,0,0,8.25,845.4,81.5)"
     xlink:href="#gpPt0" />
  <use
     style="color:#ff0000;fill:none;stroke:currentColor;stroke-width:3;stroke-linecap:butt;stroke-linejoin:miter"
     height="1024"
     width="1024"
     y="0"
     x="0"
     id="use190"
     transform="matrix(8.25,0,0,8.25,911.5,90.5)"
     xlink:href="#gpPt0" />
  <use
     style="color:#ff0000;fill:none;stroke:currentColor;stroke-width:3;stroke-linecap:butt;stroke-linejoin:miter"
     height="1024"
     width="1024"
     y="0"
     x="0"
     id="use192"
     transform="matrix(8.25,0,0,8.25,341.5,63.9)"
     xlink:href="#gpPt0" />
  <text
     style="font-size:27.5px;text-anchor:start;color:#008000;fill:#000000;stroke:none;font-family:Arial"
     id="text201"
     x="133.10001"
     y="105.1">
    <tspan
       id="tspan203">block=2</tspan>
  </text>
  <path
     style="color:#008000;fill:none;stroke:currentColor;stroke-width:3;stroke-linecap:butt;stroke-linejoin:miter"
     inkscape:connector-curvature="0"
     id="path205"
     d="m 302.5,96.9 78.1,0 M 183.9,791.6 250,682.9 l 132.3,-134 132.3,-31.7 132.3,30.5 198.5,14.7 66.1,-9 h 0.01" />
  <use
     style="color:#008000;fill:none;stroke:currentColor;stroke-width:3;stroke-linecap:butt;stroke-linejoin:miter"
     height="1024"
     width="1024"
     y="0"
     x="0"
     id="use207"
     transform="matrix(8.25,0,0,8.25,183.9,791.6)"
     xlink:href="#gpPt1" />
  <use
     style="color:#008000;fill:none;stroke:currentColor;stroke-width:3;stroke-linecap:butt;stroke-linejoin:miter"
     height="1024"
     width="1024"
     y="0"
     x="0"
     id="use209"
     transform="matrix(8.25,0,0,8.25,250,682.9)"
     xlink:href="#gpPt1" />
  <use
     style="color:#008000;fill:none;stroke:currentColor;stroke-width:3;stroke-linecap:butt;stroke-linejoin:miter"
     height="1024"
     width="1024"
     y="0"
     x="0"
     id="use211"
     transform="matrix(8.25,0,0,8.25,382.3,548.9)"
     xlink:href="#gpPt1" />
  <use
     style="color:#008000;fill:none;stroke:currentColor;stroke-width:3;stroke-linecap:butt;stroke-linejoin:miter"
     height="1024"
     width="1024"
     y="0"
     x="0"
     id="use213"
     transform="matrix(8.25,0,0,8.25,514.6,517.2)"
     xlink:href="#gpPt1" />
  <use
     style="color:#008000;fill:none;stroke:currentColor;stroke-width:3;stroke-linecap:butt;stroke-linejoin:miter"
     height="1024"
     width="1024"
     y="0"
     x="0"
     id="use215"
     transform="matrix(8.25,0,0,8.25,646.9,547.7)"
     xlink:href="#gpPt1" />
  <use
     style="color:#008000;fill:none;stroke:currentColor;stroke-width:3;stroke-linecap:butt;stroke-linejoin:miter"
     height="1024"
     width="1024"
     y="0"
     x="0"
     id="use217"
     transform="matrix(8.25,0,0,8.25,845.4,562.4)"
     xlink:href="#gpPt1" />
  <use
     style="color:#008000;fill:none;stroke:currentColor;stroke-width:3;stroke-linecap:butt;stroke-linejoin:miter"
     height="1024"
     width="1024"
     y="0"
     x="0"
     id="use219"
     transform="matrix(8.25,0,0,8.25,911.5,553.4)"
     xlink:href="#gpPt1" />
  <use
     style="color:#008000;fill:none;stroke:currentColor;stroke-width:3;stroke-linecap:butt;stroke-linejoin:miter"
     height="1024"
     width="1024"
     y="0"
     x="0"
     id="use221"
     transform="matrix(8.25,0,0,8.25,341.5,96.9)"
     xlink:href="#gpPt1" />
  <text
     style="font-size:27.5px;text-anchor:start;color:#0000ff;fill:#000000;stroke:none;font-family:Arial"
     id="text230"
     x="133.10001"
     y="138.10001">
    <tspan
       id="tspan232">block=2500</tspan>
  </text>
  <path
     style="color:#0000ff;fill:none;stroke:currentColor;stroke-width:3;stroke-linecap:butt;stroke-linejoin:miter"
     inkscape:connector-curvature="0"
     id="path234"
     d="m 302.5,129.9 78.1,0 M 183.9,793.6 250,693.5 382.3,496.2 514.6,450.9 646.9,503.1 845.4,473.4 911.5,531 h 0.01" />
  <use
     style="color:#0000ff;fill:none;stroke:currentColor;stroke-width:3;stroke-linecap:butt;stroke-linejoin:miter"
     height="1024"
     width="1024"
     y="0"
     x="0"
     id="use236"
     transform="matrix(8.25,0,0,8.25,183.9,793.6)"
     xlink:href="#gpPt2" />
  <use
     style="color:#0000ff;fill:none;stroke:currentColor;stroke-width:3;stroke-linecap:butt;stroke-linejoin:miter"
     height="1024"
     width="1024"
     y="0"
     x="0"
     id="use238"
     transform="matrix(8.25,0,0,8.25,250,693.5)"
     xlink:href="#gpPt2" />
  <use
     style="color:#0000ff;fill:none;stroke:currentColor;stroke-width:3;stroke-linecap:butt;stroke-linejoin:miter"
     height="1024"
     width="1024"
     y="0"
     x="0"
     id="use240"
     transform="matrix(8.25,0,0,8.25,382.3,496.2)"
     xlink:href="#gpPt2" />
  <use
     style="color:#0000ff;fill:none;stroke:currentColor;stroke-width:3;stroke-linecap:butt;stroke-linejoin:miter"
     height="1024"
     width="1024"
     y="0"
     x="0"
     id="use242"
     transform="matrix(8.25,0,0,8.25,514.6,450.9)"
     xlink:href="#gpPt2" />
  <use
     style="color:#0000ff;fill:none;stroke:currentColor;stroke-width:3;stroke-linecap:butt;stroke-linejoin:miter"
     height="1024"
     width="1024"
     y="0"
     x="0"
     id="use244"
     transform="matrix(8.25,0,0,8.25,646.9,503.1)"
     xlink:href="#gpPt2" />
  <use
     style="color:#0000ff;fill:none;stroke:currentColor;stroke-width:3;stroke-linecap:butt;stroke-linejoin:miter"
     height="1024"
     width="1024"
     y="0"
     x="0"
     id="use246"
     transform="matrix(8.25,0,0,8.25,845.4,473.4)"
     xlink:href="#gpPt2" />
  <use
     style="color:#0000ff;fill:none;stroke:currentColor;stroke-width:3;stroke-linecap:butt;stroke-linejoin:miter"
     height="1024"
     width="1024"
     y="0"
     x="0"
     id="use248"
     transform="matrix(8.25,0,0,8.25,911.5,531)"
     xlink:href="#gpPt2" />
  <use
     style="color:#0000ff;fill:none;stroke:currentColor;stroke-width:3;stroke-linecap:butt;stroke-linejoin:miter"
     height="1024"
     width="1024"
     y="0"
     x="0"
     id="use250"
     transform="matrix(8.25,0,0,8.25,341.5,129.9)"
     xlink:href="#gpPt2" />
  <path
     d="m 117.7,30.9 0,887.5 860,0 m 0,-887.5 m -860,0 h 0.01"
     id="path254"
     inkscape:connector-curvature="0"
     style="color:#000000;fill:none;stroke:#000000;stroke-width:3;stroke-linecap:butt;stroke-linejoin:miter" />
</svg>
