<?xml version="1.0" encoding="UTF-8" standalone="no"?>
<svg
   xmlns:dc="http://purl.org/dc/elements/1.1/"
   xmlns:cc="http://creativecommons.org/ns#"
   xmlns:rdf="http://www.w3.org/1999/02/22-rdf-syntax-ns#"
   xmlns:svg="http://www.w3.org/2000/svg"
   xmlns="http://www.w3.org/2000/svg"
   xmlns:xlink="http://www.w3.org/1999/xlink"
   xmlns:sodipodi="http://sodipodi.sourceforge.net/DTD/sodipodi-0.dtd"
   xmlns:inkscape="http://www.inkscape.org/namespaces/inkscape"
   width="600"
   height="480"
   viewBox="0 0 600 480"
   id="svg2"
   version="1.1"
   inkscape:version="0.48.4 r9939"
   sodipodi:docname="integrand-labelled.svg">
  <metadata
     id="metadata132">
    <rdf:RDF>
      <cc:Work
         rdf:about="">
        <dc:format>image/svg+xml</dc:format>
        <dc:type
           rdf:resource="http://purl.org/dc/dcmitype/StillImage" />
        <dc:title>Gnuplot</dc:title>
      </cc:Work>
    </rdf:RDF>
  </metadata>
  <defs
     id="defs130">
    <defs
       id="defs11">
      <circle
         stroke-width="0.5"
         r="0.5"
         id="gpDot" />
      <path
         d="M-1,0 h2 M0,-1 v2"
         stroke="currentColor"
         stroke-width="0.222"
         id="gpPt0" />
      <path
         d="M-1,-1 L1,1 M1,-1 L-1,1"
         stroke="currentColor"
         stroke-width="0.222"
         id="gpPt1" />
      <path
         d="M-1,0 L1,0 M0,-1 L0,1 M-1,-1 L1,1 M-1,1 L1,-1"
         stroke="currentColor"
         stroke-width="0.222"
         id="gpPt2" />
      <rect
         height="2"
         width="2"
         y="-1"
         x="-1"
         stroke="currentColor"
         stroke-width="0.222"
         id="gpPt3" />
      <rect
         height="2"
         width="2"
         y="-1"
         x="-1"
         fill="currentColor"
         stroke="currentColor"
         stroke-width="0.222"
         id="gpPt4" />
      <circle
         r="1"
         cy="0"
         cx="0"
         stroke="currentColor"
         stroke-width="0.222"
         id="gpPt5" />
      <use
         stroke="none"
         fill="currentColor"
         id="gpPt6"
         xlink:href="#gpPt5" />
      <path
         d="M0,-1.33 L-1.33,0.67 L1.33,0.67 z"
         stroke="currentColor"
         stroke-width="0.222"
         id="gpPt7" />
      <use
         stroke="none"
         fill="currentColor"
         id="gpPt8"
         xlink:href="#gpPt7" />
      <use
         transform="rotate(180)"
         stroke="currentColor"
         id="gpPt9"
         xlink:href="#gpPt7" />
      <use
         stroke="none"
         fill="currentColor"
         id="gpPt10"
         xlink:href="#gpPt9" />
      <use
         transform="rotate(45)"
         stroke="currentColor"
         id="gpPt11"
         xlink:href="#gpPt3" />
      <use
         stroke="none"
         fill="currentColor"
         id="gpPt12"
         xlink:href="#gpPt11" />
    </defs>
  </defs>
  <sodipodi:namedview
     pagecolor="#ffffff"
     bordercolor="#666666"
     borderopacity="1"
     objecttolerance="10"
     gridtolerance="10"
     guidetolerance="10"
     inkscape:pageopacity="0"
     inkscape:pageshadow="2"
     inkscape:window-width="1341"
     inkscape:window-height="940"
     id="namedview128"
     showgrid="false"
     inkscape:zoom="1.3906433"
     inkscape:cx="317.2582"
     inkscape:cy="211.23633"
     inkscape:window-x="105"
     inkscape:window-y="24"
     inkscape:window-maximized="0"
     inkscape:current-layer="svg2" />
  <title
     id="title4">Gnuplot</title>
  <desc
     id="desc6">Produced by GNUPLOT 4.6 patchlevel 4 </desc>
  <rect
     style="fill:none"
     id="rect9"
     height="480"
     width="600"
     y="0"
     x="0" />
  <g
     id="g27"
     style="color:#ffffff;fill:none;stroke:currentColor;stroke-width:1;stroke-linecap:butt;stroke-linejoin:miter" />
  <path
     d="m 45.6,444 9,0 m 520.4,0 -9,0 h 0.01"
     id="path31"
     inkscape:connector-curvature="0"
     style="color:#000000;fill:none;stroke:#000000;stroke-width:1;stroke-linecap:butt;stroke-linejoin:miter" />
  <g
     transform="translate(37.3,448.5)"
     style="font-size:15px;text-anchor:end;color:#000000;fill:#000000;stroke:none;font-family:Arial"
     id="g33">
    <text
       id="text35">0</text>
  </g>
  <path
     d="m 45.6,383 9,0 m 520.4,0 -9,0 h 0.01"
     id="path37"
     inkscape:connector-curvature="0"
     style="color:#000000;fill:none;stroke:#000000;stroke-width:1;stroke-linecap:butt;stroke-linejoin:miter" />
  <g
     transform="translate(37.3,387.5)"
     style="font-size:15px;text-anchor:end;color:#000000;fill:#000000;stroke:none;font-family:Arial"
     id="g39">
    <text
       id="text41">5</text>
  </g>
  <path
     d="m 45.6,321.9 9,0 m 520.4,0 -9,0 h 0.01"
     id="path43"
     inkscape:connector-curvature="0"
     style="color:#000000;fill:none;stroke:#000000;stroke-width:1;stroke-linecap:butt;stroke-linejoin:miter" />
  <g
     transform="translate(37.3,326.4)"
     style="font-size:15px;text-anchor:end;color:#000000;fill:#000000;stroke:none;font-family:Arial"
     id="g45">
    <text
       id="text47">10</text>
  </g>
  <path
     d="m 45.6,260.9 9,0 m 520.4,0 -9,0 h 0.01"
     id="path49"
     inkscape:connector-curvature="0"
     style="color:#000000;fill:none;stroke:#000000;stroke-width:1;stroke-linecap:butt;stroke-linejoin:miter" />
  <g
     transform="translate(37.3,265.4)"
     style="font-size:15px;text-anchor:end;color:#000000;fill:#000000;stroke:none;font-family:Arial"
     id="g51">
    <text
       id="text53">15</text>
  </g>
  <path
     d="m 45.6,199.8 9,0 m 520.4,0 -9,0 h 0.01"
     id="path55"
     inkscape:connector-curvature="0"
     style="color:#000000;fill:none;stroke:#000000;stroke-width:1;stroke-linecap:butt;stroke-linejoin:miter" />
  <g
     transform="translate(37.3,204.3)"
     style="font-size:15px;text-anchor:end;color:#000000;fill:#000000;stroke:none;font-family:Arial"
     id="g57">
    <text
       id="text59">20</text>
  </g>
  <path
     d="m 45.6,138.8 9,0 m 520.4,0 -9,0 h 0.01"
     id="path61"
     inkscape:connector-curvature="0"
     style="color:#000000;fill:none;stroke:#000000;stroke-width:1;stroke-linecap:butt;stroke-linejoin:miter" />
  <g
     transform="translate(37.3,143.3)"
     style="font-size:15px;text-anchor:end;color:#000000;fill:#000000;stroke:none;font-family:Arial"
     id="g63">
    <text
       id="text65">25</text>
  </g>
  <path
     d="m 45.6,77.7 9,0 m 520.4,0 -9,0 h 0.01"
     id="path67"
     inkscape:connector-curvature="0"
     style="color:#000000;fill:none;stroke:#000000;stroke-width:1;stroke-linecap:butt;stroke-linejoin:miter" />
  <g
     transform="translate(37.3,82.2)"
     style="font-size:15px;text-anchor:end;color:#000000;fill:#000000;stroke:none;font-family:Arial"
     id="g69">
    <text
       id="text71">30</text>
  </g>
  <path
     d="m 45.6,16.7 9,0 m 520.4,0 -9,0 h 0.01"
     id="path73"
     inkscape:connector-curvature="0"
     style="color:#000000;fill:none;stroke:#000000;stroke-width:1;stroke-linecap:butt;stroke-linejoin:miter" />
  <g
     transform="translate(37.3,21.2)"
     style="font-size:15px;text-anchor:end;color:#000000;fill:#000000;stroke:none;font-family:Arial"
     id="g75">
    <text
       id="text77">35</text>
  </g>
  <path
     d="m 45.6,444 0,-9 m 0,-418.3 0,9 h 0.01"
     id="path79"
     inkscape:connector-curvature="0"
     style="color:#000000;fill:none;stroke:#000000;stroke-width:1;stroke-linecap:butt;stroke-linejoin:miter" />
  <g
     transform="translate(45.6,466.5)"
     style="font-size:15px;text-anchor:middle;color:#000000;fill:#000000;stroke:none;font-family:Arial"
     id="g81">
    <text
       id="text83">0</text>
  </g>
  <path
     d="m 151.5,444 0,-9 m 0,-418.3 0,9 h 0.01"
     id="path85"
     inkscape:connector-curvature="0"
     style="color:#000000;fill:none;stroke:#000000;stroke-width:1;stroke-linecap:butt;stroke-linejoin:miter" />
  <g
     transform="translate(151.5,466.5)"
     style="font-size:15px;text-anchor:middle;color:#000000;fill:#000000;stroke:none;font-family:Arial"
     id="g87">
    <text
       id="text89">0.2</text>
  </g>
  <path
     d="m 257.4,444 0,-9 m 0,-418.3 0,9 h 0.01"
     id="path91"
     inkscape:connector-curvature="0"
     style="color:#000000;fill:none;stroke:#000000;stroke-width:1;stroke-linecap:butt;stroke-linejoin:miter" />
  <g
     transform="translate(257.4,466.5)"
     style="font-size:15px;text-anchor:middle;color:#000000;fill:#000000;stroke:none;font-family:Arial"
     id="g93">
    <text
       id="text95">0.4</text>
  </g>
  <path
     d="m 363.2,444 0,-9 m 0,-418.3 0,9 h 0.01"
     id="path97"
     inkscape:connector-curvature="0"
     style="color:#000000;fill:none;stroke:#000000;stroke-width:1;stroke-linecap:butt;stroke-linejoin:miter" />
  <g
     transform="translate(363.2,466.5)"
     style="font-size:15px;text-anchor:middle;color:#000000;fill:#000000;stroke:none;font-family:Arial"
     id="g99">
    <text
       id="text101">0.6</text>
  </g>
  <path
     d="m 469.1,444 0,-9 m 0,-418.3 0,9 h 0.01"
     id="path103"
     inkscape:connector-curvature="0"
     style="color:#000000;fill:none;stroke:#000000;stroke-width:1;stroke-linecap:butt;stroke-linejoin:miter" />
  <g
     transform="translate(469.1,466.5)"
     style="font-size:15px;text-anchor:middle;color:#000000;fill:#000000;stroke:none;font-family:Arial"
     id="g105">
    <text
       id="text107">0.8</text>
  </g>
  <path
     d="m 575,444 0,-9 m 0,-418.3 0,9 h 0.01"
     id="path109"
     inkscape:connector-curvature="0"
     style="color:#000000;fill:none;stroke:#000000;stroke-width:1;stroke-linecap:butt;stroke-linejoin:miter" />
  <g
     transform="translate(575,466.5)"
     style="font-size:15px;text-anchor:middle;color:#000000;fill:#000000;stroke:none;font-family:Arial"
     id="g111">
    <text
       id="text113">1</text>
  </g>
  <path
     d="m 45.6,16.7 0,427.3 529.4,0 0,-427.3 -529.4,0 z m 0,0 h 0.01"
     id="path115"
     inkscape:connector-curvature="0"
     style="color:#000000;fill:none;stroke:#000000;stroke-width:1;stroke-linecap:butt;stroke-linejoin:miter" />
  <text
     xml:space="preserve"
     style="font-size:18px;font-style:normal;font-variant:normal;font-weight:normal;font-stretch:normal;text-align:start;line-height:125%;letter-spacing:0px;word-spacing:0px;writing-mode:lr-tb;text-anchor:start;fill:#000000;fill-opacity:1;stroke:none;font-family:Serif;-inkscape-font-specification:Serif"
     x="126.22508"
     y="377.13846"
     id="text3109"
     sodipodi:linespacing="125%"><tspan
       sodipodi:role="line"
       id="tspan3111"
       x="126.22508"
       y="377.13846"
       style="font-size:22px"><tspan
   style="font-style:italic;-inkscape-font-specification:Serif Italic"
   id="tspan3113">y<tspan
   style="font-style:normal;-inkscape-font-specification:Serif"
   id="tspan3117">=</tspan>f</tspan>(<tspan
   style="font-style:italic;-inkscape-font-specification:Serif Italic"
   id="tspan3115">x</tspan>)</tspan></text>
  <text
     xml:space="preserve"
     style="font-size:18px;font-style:normal;font-variant:normal;font-weight:normal;font-stretch:normal;text-align:start;line-height:125%;letter-spacing:0px;word-spacing:0px;writing-mode:lr-tb;text-anchor:start;fill:#000000;fill-opacity:1;stroke:none;font-family:Serif;-inkscape-font-specification:Serif"
     x="2.8763659"
     y="256.36249"
     id="text3119"
     sodipodi:linespacing="125%"><tspan
       sodipodi:role="line"
       id="tspan3121"
       x="2.8763659"
       y="256.36249"
       style="font-size:24px;font-style:italic;-inkscape-font-specification:Serif Italic">y</tspan></text>
  <text
     sodipodi:linespacing="125%"
     id="text3123"
     y="473.52817"
     x="299.14212"
     style="font-size:18px;font-style:normal;font-variant:normal;font-weight:normal;font-stretch:normal;text-align:start;line-height:125%;letter-spacing:0px;word-spacing:0px;writing-mode:lr-tb;text-anchor:start;fill:#000000;fill-opacity:1;stroke:none;font-family:Serif;-inkscape-font-specification:Serif"
     xml:space="preserve"><tspan
       style="font-size:24px;font-style:italic;-inkscape-font-specification:Serif Italic"
       y="473.52817"
       x="299.14212"
       id="tspan3125"
       sodipodi:role="line">x</tspan></text>
  <rect
     style="fill:#ffffff;fill-opacity:1;stroke:none;stroke-width:0.1;stroke-linecap:round;stroke-linejoin:round;stroke-miterlimit:4;stroke-opacity:1;stroke-dasharray:none"
     id="rect3171"
     width="528.53235"
     height="23.730024"
     x="47.460052"
     y="7.5567794" />
  <rect
     style="fill:#ffffff;fill-opacity:1;stroke:none;stroke-width:2.50000000000000000;stroke-linecap:round;stroke-linejoin:round;stroke-miterlimit:4;stroke-opacity:1;stroke-dasharray:none"
     id="rect3175"
     width="17.258202"
     height="422.10681"
     x="563.76782"
     y="23.376795" />
  <path
     style="color:#ff0000;fill:none;stroke:#ff0000;stroke-width:2.5;stroke-linecap:butt;stroke-linejoin:miter;stroke-miterlimit:4;stroke-dasharray:none"
     inkscape:connector-curvature="0"
     id="path122"
     d="m 50.9,60.8 5.4,155.4 5.3,59.7 5.4,32.6 5.3,20.9 5.4,14.7 5.3,10.9 5.4,8.4 5.3,6.9 5.4,5.6 5.3,4.7 5.4,4 5.3,3.4 5.4,3.1 5.3,2.6 5.4,2.4 5.3,2.1 5.4,2 5.3,1.7 5.3,1.6 5.4,1.4 5.3,1.4 5.4,1.2 5.3,1.2 5.4,1 5.3,1 5.4,1 5.3,0.8 5.4,0.8 5.3,0.8 5.4,0.7 5.3,0.7 5.4,0.7 5.3,0.6 5.4,0.6 5.3,0.5 5.4,0.6 5.3,0.5 5.4,0.4 5.3,0.5 5.3,0.5 5.4,0.4 5.3,0.4 5.4,0.4 5.3,0.3 5.4,0.4 5.3,0.4 5.4,0.3 5.3,0.3 5.4,0.3 5.3,0.3 5.4,0.3 5.3,0.3 5.4,0.3 5.3,0.2 5.4,0.3 5.3,0.2 5.4,0.3 5.3,0.2 5.3,0.2 5.4,0.2 5.3,0.3 5.4,0.2 5.3,0.2 5.4,0.2 5.3,0.2 5.4,0.1 5.3,0.2 5.4,0.2 5.3,0.2 5.4,0.1 5.3,0.2 5.4,0.2 5.3,0.1 5.4,0.2 5.3,0.1 5.4,0.2 5.3,0.1 5.4,0.1 5.3,0.2 5.3,0.1 5.4,0.1 5.3,0.2 5.4,0.1 5.3,0.1 5.4,0.1 5.3,0.1 5.4,0.2 5.3,0.1 5.4,0.1 5.3,0.1 5.4,0.1 5.3,0.1 5.4,0.1 5.3,0.1 5.4,0.1 5.3,0.1 5.4,0.1 5.3,0.1 h 0.01" />
</svg>
